<svg xmlns="http://www.w3.org/2000/svg" width="70.938" height="72.428" viewBox="0 0 70.938 72.428">
  <g id="Grupo_4" data-name="Grupo 4" transform="translate(-275.614 -1969)">
    <path id="Trazado_1" data-name="Trazado 1" d="M145.6-241.5c-.4,1.2-2.4,1.5-9.1,1.5-7.6,0-8.5.2-8.5,1.8a5.966,5.966,0,0,0,2,3.7l2,1.8-2.1,2.3c-3.9,4.1-2,5.4,7.6,5.4H146v3.8c0,3.1-1.1,5.3-5.5,11.2-3,4-5.5,7.7-5.5,8.1a3.747,3.747,0,0,0,1.4,1.8c1.1.9,2.3-.1,6-5.4,2.6-3.6,5.1-6.5,5.5-6.5.5,0,2.5,2.5,4.5,5.6,3.5,5.3,5.8,6.4,6.4,3.3.1-.8-1.8-4.2-4.3-7.6L150-217v-13c0-12.1-.1-13-1.9-13A3.033,3.033,0,0,0,145.6-241.5Zm.2,8.7a18.579,18.579,0,0,1-.441,3.16c.034.612-1.379.232-4.359.44l-4.6.3V-236h9.7Z" transform="translate(166.927 2212)" fill="#060f9c"/>
    <path id="Trazado_12" data-name="Trazado 12" d="M116.4-199c-8.1,10.2-9.1,12.2-6.3,12.8.9.2,4.1-3,8.3-8.3,3.8-4.8,7.2-8.3,7.6-7.8.4.4,5.3,7.4,10.8,15.4,11.4,16.4,12.4,17.6,14,15.6.9-1,.5-2.2-1.3-5l-2.5-3.6,8.6-9.3c4.8-5.1,9.3-9.9,10-10.7,1-1.1,2-.1,6,5.8,4.5,6.8,6.5,8.3,8,6,.6-1-9.8-17.3-11.9-18.6-.6-.3-6,4.7-12.1,11.2l-11.2,11.9-8.8-12.7c-4.9-7-9.4-12.7-10.1-12.7C124.9-209,120.7-204.5,116.4-199Z" transform="translate(166.927 2212)" fill="#060f9c"/>
  </g>
</svg>
