<svg xmlns="http://www.w3.org/2000/svg" width="81" height="71" viewBox="0 0 81 71">
  <g id="Grupo_3" data-name="Grupo 3" transform="translate(-443.927 -1970)">
    <path id="Trazado_2" data-name="Trazado 2" d="M316-236.4c0,4.7.3,5.5,1.8,5.2,1.3-.2,1.8-1.5,2-5.6.3-4.7.1-5.2-1.7-5.2C316.2-242,316-241.4,316-236.4Z" transform="translate(166.927 2212)" fill="#060f9c"/>
    <path id="Trazado_4" data-name="Trazado 4" d="M298.4-236.6c-.7,1.9,2.3,7.6,4.1,7.6,2.5,0,2.7-2,.5-5.5C300.7-238.2,299.3-238.9,298.4-236.6Z" transform="translate(166.927 2212)" fill="#060f9c"/>
    <path id="Trazado_5" data-name="Trazado 5" d="M333.1-235.4a9.238,9.238,0,0,0-2.1,4.6c0,2.9,3.1,1.8,5.2-1.8,1.6-2.7,1.6-3.3.4-4.3C335.5-237.8,334.8-237.5,333.1-235.4Z" transform="translate(166.927 2212)" fill="#060f9c"/>
    <path id="Trazado_6" data-name="Trazado 6" d="M307.5-225.7c-6.1,2.1-10.4,4.5-17.1,9.8-6.3,5-13.4,12.9-13.4,14.9,0,.6,3.6,4.7,7.9,9,13.5,13.3,28.4,18.7,41.7,15,4.6-1.3,4.9-1.7,3.5-3.8-.6-1.1-1.7-1.1-5.5-.1-6.4,1.6-14.3.6-20.9-2.6-6.2-3.1-16.1-10.9-19.4-15.4l-2.3-3,6.5-6.4a62.768,62.768,0,0,1,13.8-10.3c6.6-3.6,7.8-3.9,15.2-3.9,6.7,0,8.9.5,13.6,2.8,5.9,2.9,18.2,12.7,20.7,16.5,1.5,2.3,1.3,2.6-5.3,8.8-6.2,6-6.6,6.7-5.2,8.1,1.5,1.5,2.3,1,9.1-5.9,4.2-4.2,7.6-8.4,7.6-9.3,0-1-3.5-5.3-7.8-9.5-10.7-10.5-20.4-15.4-31.1-15.7A41.456,41.456,0,0,0,307.5-225.7Z" transform="translate(166.927 2212)" fill="#060f9c"/>
    <path id="Trazado_7" data-name="Trazado 7" d="M312.2-216.8c-4.2,1.4-8.8,6.7-10.1,11.6-3.6,13.2,12,24.9,23.5,17.7,1.9-1.2,2.4-1.1,4.8,1.4,1.4,1.5,2.6,3.2,2.6,3.7s2.4,3.3,5.3,6.2l5.3,5.2,2.1-2.2,2.2-2.3-4.8-5.3c-2.7-2.8-5.4-5.2-6.2-5.2-.7,0-2.5-1.2-4-2.6l-2.6-2.5,1.8-3.7c2.4-4.7,2.4-8.6-.2-13.8A16.451,16.451,0,0,0,312.2-216.8Zm14.3,6.2c6.1,5.8,5.3,14.8-1.7,20-5.6,4.1-15.1,1.7-18.4-4.5-2.9-5.7-1-14.5,3.8-17C316.5-215.5,321.8-215,326.5-210.6Z" transform="translate(166.927 2212)" fill="#060f9c"/>
    <path id="Trazado_8" data-name="Trazado 8" d="M309.6-205.3c-1.1,1.1-.6,2.3.9,2.3.8,0,1.5-.4,1.5-.9C312-205.2,310.4-206.1,309.6-205.3Z" transform="translate(166.927 2212)" fill="#060f9c"/>
    <path id="Trazado_9" data-name="Trazado 9" d="M316.3-204.3a3.148,3.148,0,0,0-1.3,2.8,3.148,3.148,0,0,0,1.3,2.8c1.7.6,4.7-1.1,4.7-2.8S318-204.9,316.3-204.3Z" transform="translate(166.927 2212)" fill="#060f9c"/>
    <path id="Trazado_10" data-name="Trazado 10" d="M309-199.6c0,2.8,4.1,6.6,7.1,6.6,3.5,0,3.8-1.6.4-2.4a8.211,8.211,0,0,1-4.1-3.1C310.6-201.2,309-201.8,309-199.6Z" transform="translate(166.927 2212)" fill="#060f9c"/>
  </g>
</svg>
