<svg xmlns="http://www.w3.org/2000/svg" width="68.074" height="68.4" viewBox="0 0 68.074 68.4">
  <g id="Grupo_2" data-name="Grupo 2" transform="translate(-623.927 -1971)">
    <path id="Trazado_3" data-name="Trazado 3" d="M476.2-236.1a35.824,35.824,0,0,0-4.2,5.6c0,.7,19.9,23.5,20.5,23.5.5,0,20-22.1,20.3-23,.2-.5-1.6-3.2-3.9-6l-4.2-5H480.3Zm12.8-1.2a8.771,8.771,0,0,1-1.8,3.1c-1.5,1.9-2.6,2.3-6.1,2l-4.3-.3,2.2-2.8c1.7-2.1,3-2.7,6.1-2.7C487.2-238,489-237.7,489-237.3Zm17,2,2.2,2.8-4.3.3c-3.5.3-4.6-.1-6.1-2-2.5-3.3-2.3-3.8,2.1-3.8C503-238,504.3-237.4,506-235.3ZM494.8-234c1.1,1.8,1,2-1.8,2-3.2,0-3.3-.1-2.4-2.4C491.4-236.6,493.3-236.4,494.8-234Zm-7.6,11.5c.9,3.2,1.5,6.1,1.3,6.3-.5.5-9.4-9-10.8-11.5-.7-1.2-.1-1.4,3.4-1.1l4.3.3Zm9.5-5.3c-.2.7-1.2,3.9-2.1,7-.9,3.2-1.9,5.8-2.1,5.8s-1.2-2.6-2.1-5.8c-.9-3.1-1.9-6.3-2.1-7-.4-.8.8-1.2,4.2-1.2S497.1-228.6,496.7-227.8Zm11.1-.3c-.5,1.4-11,12.3-11.4,11.9-.3-.3,1.7-7.8,3.1-11.6.2-.7,2.2-1.2,4.6-1.2C506.3-229,508-228.6,507.8-228.1Z" transform="translate(166.927 2212)" fill="#060f9c"/>
    <path id="Trazado_11" data-name="Trazado 11" d="M513-205.8c-4.4,3.6-6.4,4.8-6.9,3.9-1.3-2.1-7.9-3.1-20.5-3.1H473.8l-8.4,8.2c-4.6,4.5-8.4,8.6-8.4,9.3,0,.6,3.1,4.2,7,8l7,6.9,5.3-5.2,5.3-5.2h25l9.2-10.4c9.6-10.9,11.2-14.5,7.3-16.6C520.1-211.6,519.6-211.4,513-205.8Zm-.2,9.3-8.3,9.5H479.6l-4.3,4.2-4.3,4.2-4-3.9c-2.2-2.1-4-4.4-4-5s2.6-3.6,5.8-6.8l5.8-5.8,14,.3c11.6.3,13.9.6,13.9,1.8s-2.2,1.5-12.2,1.8c-11.5.2-12.3.4-12.3,2.2,0,1.9.7,2,12.8,2l12.7-.1,8-6.9c4.4-3.8,8.4-6.9,8.8-6.9C520.7-206,517.3-201.7,512.8-196.5Z" transform="translate(166.927 2212)" fill="#060f9c"/>
  </g>
</svg>
